<svg width="52" height="45" viewBox="0 0 52 45" fill="none" xmlns="http://www.w3.org/2000/svg">
<path d="M5.26303 15.756L14.3704 21.0142L14.3029 40.4725C14.3022 40.7317 14.3701 40.9865 14.4995 41.2113C14.6291 41.4361 14.8158 41.6229 15.0406 41.7527L20.2601 44.7662C21.1071 45.2552 22.1852 44.7996 22.4216 43.8528L26.3912 27.9544L34.5877 32.6866L35.3865 39.2533C35.4422 39.7125 35.7119 40.1195 36.1127 40.3509L39.2994 42.1908C40.1289 42.6697 41.1866 42.2437 41.4486 41.3244L43.9002 31.2793L51.3737 24.1336C52.0388 23.4471 51.8789 22.3181 51.0494 21.8392L47.8627 19.9993C47.4611 19.7675 46.9746 19.7378 46.549 19.9192L40.4627 22.5108L32.2662 17.7786L44.0493 6.39238C44.7511 5.71423 44.6071 4.55202 43.7601 4.06297L38.5406 1.04952C38.0832 0.785424 37.5196 0.786448 37.0638 1.05125L20.2454 10.8384L11.138 5.58022C8.32111 3.95387 2.17308 3.44117 0.550582 6.25142C-1.07192 9.06168 2.44611 14.1297 5.26303 15.756Z" fill="#F7C91F"/>
</svg>
