<svg width="49" height="55" viewBox="0 0 49 55" fill="none" xmlns="http://www.w3.org/2000/svg">
<path d="M14.6467 10.1233L16.4729 20.4798L1.52358 32.9357C1.32459 33.1017 1.17294 33.3176 1.08397 33.5612C0.995022 33.805 0.97194 34.0681 1.01704 34.3237L2.0636 40.259C2.23344 41.2223 3.27539 41.7553 4.15265 41.3277L18.8832 34.1493L20.5267 43.4701L16.0098 48.3029C15.6937 48.6408 15.5553 49.109 15.6357 49.5648L16.2747 53.1885C16.441 54.1319 17.4472 54.6683 18.3198 54.278L27.5907 49.6992L37.8685 50.8311C38.8219 50.8993 39.584 50.0511 39.4177 49.1078L38.7787 45.4841C38.6982 45.0274 38.4081 44.6356 37.9956 44.4262L32.0982 41.4297L30.4547 32.109L46.7511 33.8165C47.7217 33.9182 48.5194 33.0608 48.3496 32.0976L47.303 26.1622C47.2113 25.6421 46.8482 25.211 46.3524 25.032L28.0444 18.4394L26.2182 8.08291C25.6534 4.87962 22.0943 -0.159604 18.8986 0.403885C15.7029 0.967373 14.0819 6.91999 14.6467 10.1233Z" fill="#F7C91F"/>
</svg>
