<svg width="55" height="49" viewBox="0 0 55 49" fill="none" xmlns="http://www.w3.org/2000/svg">
<path d="M46.9186 22.7834L36.5621 20.9573L29.9704 2.64937C29.8824 2.40558 29.7314 2.18926 29.5329 2.02233C29.3343 1.85537 29.0949 1.7437 28.8393 1.69863L22.9039 0.652072C21.9407 0.482227 21.0835 1.27906 21.1852 2.24963L22.8926 18.547L13.5718 16.9035L10.5753 11.006C10.3659 10.5935 9.97326 10.3033 9.51747 10.2229L5.89372 9.58397C4.9504 9.41764 4.10219 10.1797 4.17046 11.1332L5.3023 21.411L0.723504 30.6818C0.333256 31.5544 0.869663 32.5606 1.81299 32.727L5.43673 33.3659C5.89344 33.4465 6.36075 33.3079 6.69864 32.9919L11.5315 28.475L20.8522 30.1185L13.674 44.848C13.2464 45.7253 13.7792 46.7682 14.7425 46.938L20.6778 47.9846C21.198 48.0763 21.7273 47.8826 22.065 47.4779L34.5217 32.5288L44.8782 34.3549C48.0815 34.9197 54.0341 33.2988 54.5976 30.1031C55.1611 26.9074 50.1219 23.3482 46.9186 22.7834Z" fill="#F7C91F"/>
</svg>
