<svg width="55" height="49" viewBox="0 0 55 49" fill="none" xmlns="http://www.w3.org/2000/svg">
<path d="M44.8783 14.6479L34.5217 16.474L22.0659 1.52471C21.8998 1.32572 21.684 1.17407 21.4403 1.0851C21.1966 0.996151 20.9335 0.973069 20.6778 1.01816L14.7425 2.06472C13.7792 2.23457 13.2463 3.27652 13.6738 4.15378L20.8522 18.8843L11.5315 20.5278L6.69865 16.0109C6.36076 15.6949 5.89254 15.5565 5.43675 15.6368L1.813 16.2758C0.869676 16.4421 0.333268 17.4484 0.723516 18.321L5.30231 27.5918L4.17047 37.8696C4.1022 38.823 4.95041 39.5851 5.89373 39.4188L9.51748 38.7798C9.97418 38.6993 10.3659 38.4093 10.5753 37.9967L13.5719 32.0993L22.8926 30.4558L21.1851 46.7522C21.0834 47.7228 21.9407 48.5205 22.904 48.3507L28.8393 47.3041C29.3595 47.2124 29.7906 46.8493 29.9695 46.3535L36.5621 28.0455L46.9186 26.2194C50.1219 25.6545 55.1611 22.0954 54.5976 18.8997C54.0342 15.704 48.0815 14.083 44.8783 14.6479Z" fill="#F7C91F"/>
</svg>
