<svg width="45" height="52" viewBox="0 0 45 52" fill="none" xmlns="http://www.w3.org/2000/svg">
<path d="M15.7548 46.7387L21.013 37.6313L40.4713 37.6988C40.7305 37.6994 40.9854 37.6316 41.2101 37.5021C41.4349 37.3726 41.6218 37.1859 41.7515 36.9611L44.765 31.7416C45.254 30.8945 44.7984 29.8165 43.8516 29.5801L27.9532 25.6105L32.6854 17.414L39.2521 16.6152C39.7114 16.5595 40.1183 16.2898 40.3498 15.889L42.1896 12.7023C42.6685 11.8728 42.2425 10.8151 41.3232 10.5531L31.2781 8.10152L24.1324 0.628042C23.4459 -0.0371156 22.3169 0.12279 21.838 0.952333L19.9982 4.139C19.7663 4.54062 19.7367 5.02714 19.9181 5.45274L22.5096 11.539L17.7774 19.7355L6.39119 7.95236C5.71304 7.25055 4.55084 7.39455 4.06179 8.2416L1.04834 13.4611C0.784237 13.9185 0.785261 14.4821 1.05006 14.9379L10.8372 31.7563L5.57904 40.8637C3.95269 43.6806 3.43998 49.8286 6.25023 51.4511C9.06049 53.0736 14.1285 49.5556 15.7548 46.7387Z" fill="#F7C91F"/>
</svg>
