<svg width="49" height="44" viewBox="0 0 49 44" fill="none" xmlns="http://www.w3.org/2000/svg">
<path d="M37.2573 2.64487L29.2013 9.40462L10.9396 2.68607C10.6963 2.59678 10.4336 2.57336 10.1781 2.61813C9.9225 2.66297 9.6831 2.77453 9.48424 2.94141L4.86737 6.81543C4.1181 7.44414 4.17752 8.61298 4.9864 9.15894L18.5683 18.3268L11.3181 24.4104L4.87429 22.9151C4.42365 22.8103 3.94897 22.9246 3.59442 23.2221L0.775644 25.5873C0.04187 26.203 0.0804436 27.3427 0.854704 27.9032L9.45548 33.6426L13.6142 43.1094C14.0318 43.9692 15.1474 44.2051 15.8812 43.5894L18.6999 41.2241C19.0552 40.9261 19.2494 40.479 19.2245 40.017L18.8709 33.4115L26.1211 27.3278L32.7905 42.2946C33.1878 43.186 34.3291 43.4482 35.0784 42.8195L39.6953 38.9455C40.0999 38.606 40.2917 38.076 40.1988 37.5572L36.7541 18.4056L44.81 11.6459C47.3018 9.5551 49.8863 3.95319 47.8004 1.46738C45.7146 -1.01843 39.749 0.554074 37.2573 2.64487Z" fill="#F7C91F"/>
</svg>
