<svg width="49" height="44" viewBox="0 0 49 44" fill="none" xmlns="http://www.w3.org/2000/svg">
<path d="M4.19048 11.6461L12.2464 18.4058L8.80107 37.5568C8.75539 37.8119 8.77794 38.0747 8.86641 38.3185C8.95494 38.5624 9.10638 38.7788 9.30526 38.9457L13.9221 42.8197C14.6714 43.4484 15.8122 43.1869 16.2094 42.2955L22.8794 27.328L30.1297 33.4116L29.776 40.0172C29.7511 40.4792 29.946 40.9268 30.3006 41.2243L33.1194 43.5896C33.8531 44.2053 34.9688 43.9694 35.3864 43.1096L39.545 33.6428L48.1458 27.9034C48.9201 27.3429 48.9587 26.2032 48.2249 25.5875L45.4061 23.2223C45.0509 22.9242 44.5769 22.8105 44.1262 22.9153L37.6824 24.4106L30.4322 18.3269L44.0135 9.15985C44.8224 8.61387 44.8824 7.44432 44.1332 6.81561L39.5163 2.94159C39.1117 2.60207 38.5564 2.5052 38.0616 2.68684L19.7992 9.40479L11.7432 2.64504C9.25152 0.554248 3.28592 -1.01826 1.20008 1.46755C-0.885768 3.95337 1.69877 9.55527 4.19048 11.6461Z" fill="#F7C91F"/>
</svg>
