<svg width="52" height="45" viewBox="0 0 52 45" fill="none" xmlns="http://www.w3.org/2000/svg">
<path d="M11.138 39.4226L20.2454 34.1645L37.063 43.9521C37.2871 44.0823 37.5418 44.1509 37.8012 44.1512C38.0607 44.1514 38.3158 44.0831 38.5406 43.9533L43.7601 40.9399C44.6071 40.4508 44.7516 39.2894 44.0498 38.6113L32.2662 27.2243L40.4627 22.492L46.5489 25.0836C46.9745 25.265 47.4618 25.2349 47.8627 25.0035L51.0493 23.1637C51.8789 22.6847 52.0388 21.5557 51.3736 20.8692L43.9001 13.7235L41.4485 3.67846C41.1866 2.75917 40.1289 2.33315 39.2993 2.81208L36.1127 4.65191C35.711 4.88378 35.4421 5.29031 35.3864 5.74959L34.5877 12.3162L26.3912 17.0485L22.422 1.15089C22.1856 0.20403 21.1071 -0.25237 20.2601 0.23668L15.0406 3.25013C14.5832 3.51423 14.3022 4.00285 14.3037 4.52995L14.3704 23.9887L5.263 29.2468C2.44608 30.8732 -1.07195 35.9412 0.550552 38.7514C2.17305 41.5617 8.32108 41.049 11.138 39.4226Z" fill="#F7C91F"/>
</svg>
