<svg width="49" height="55" viewBox="0 0 49 55" fill="none" xmlns="http://www.w3.org/2000/svg">
<path d="M22.7823 8.08288L20.9562 18.4394L2.64827 25.0311C2.40448 25.1191 2.18817 25.2701 2.02123 25.4686C1.85427 25.6672 1.7426 25.9066 1.69753 26.1622L0.650973 32.0976C0.481128 33.0608 1.27796 33.918 2.24853 33.8163L18.5459 32.1089L16.9024 41.4297L11.0049 44.4262C10.5924 44.6356 10.3022 45.0282 10.2218 45.484L9.58288 49.1078C9.41654 50.0511 10.1786 50.8993 11.1321 50.831L21.4099 49.6992L30.6807 54.278C31.5533 54.6682 32.5595 54.1318 32.7259 53.1885L33.3648 49.5648C33.4454 49.1081 33.3068 48.6407 32.9908 48.3029L28.4739 43.47L30.1174 34.1493L44.8469 41.3275C45.7242 41.7551 46.7671 41.2223 46.9369 40.259L47.9835 34.3237C48.0752 33.8035 47.8815 33.2742 47.4768 32.9365L32.5277 20.4798L34.3538 10.1232C34.9186 6.91996 33.2977 0.96735 30.102 0.403861C26.9063 -0.159627 23.3471 4.8796 22.7823 8.08288Z" fill="#F7C91F"/>
</svg>
