<svg width="45" height="52" viewBox="0 0 45 52" fill="none" xmlns="http://www.w3.org/2000/svg">
<path d="M29.2457 5.26403L23.9875 14.3714L4.52923 14.3039C4.27004 14.3032 4.01515 14.3711 3.79038 14.5005C3.56556 14.6301 3.37875 14.8168 3.24897 15.0416L0.235518 20.2611C-0.253533 21.1081 0.202066 22.1862 1.14889 22.4225L17.0473 26.3922L12.3151 34.5887L5.74843 35.3874C5.28914 35.4431 4.88216 35.7129 4.65075 36.1137L2.81092 39.3004C2.33198 40.1299 2.75801 41.1876 3.6773 41.4495L13.7224 43.9012L20.8681 51.3746C21.5546 52.0398 22.6836 51.8799 23.1625 51.0504L25.0023 47.8637C25.2342 47.4621 25.2638 46.9755 25.0824 46.5499L22.4909 40.4637L27.2231 32.2672L38.6093 44.0503C39.2875 44.7521 40.4497 44.6081 40.9387 43.7611L43.9522 38.5416C44.2163 38.0842 44.2152 37.5206 43.9504 37.0648L34.1633 20.2464L39.4215 11.139C41.0478 8.32211 41.5605 2.17408 38.7503 0.551577C35.94 -1.07092 30.872 2.44711 29.2457 5.26403Z" fill="#F7C91F"/>
</svg>
