<svg width="49" height="44" viewBox="0 0 49 44" fill="none" xmlns="http://www.w3.org/2000/svg">
<path d="M44.81 32.3567L36.7541 25.597L40.1994 6.44603C40.2451 6.1909 40.2225 5.9281 40.1341 5.68426C40.0455 5.44036 39.8941 5.22398 39.6952 5.05712L35.0784 1.1831C34.3291 0.554393 33.1883 0.815872 32.7911 1.70727L26.121 16.6748L18.8708 10.5912L19.2245 3.98559C19.2494 3.52361 19.0544 3.07598 18.6999 2.77848L15.8811 0.413245C15.1473 -0.202464 14.0317 0.0334175 13.6141 0.893256L9.45544 10.36L0.854667 16.0994C0.0804064 16.66 0.0418315 17.7996 0.775606 18.4153L3.59438 20.7805C3.94963 21.0786 4.42362 21.1923 4.87425 21.0875L11.3181 19.5922L18.5683 25.6759L4.98697 34.843C4.17807 35.3889 4.11806 36.5585 4.86733 37.1872L9.48421 41.0612C9.88883 41.4007 10.4441 41.4976 10.9389 41.316L29.2013 34.598L37.2572 41.3578C39.749 43.4486 45.7146 45.0211 47.8004 42.5352C49.8863 40.0494 47.3017 34.4475 44.81 32.3567Z" fill="#F7C91F"/>
</svg>
