<svg width="48" height="55" viewBox="0 0 48 55" fill="none" xmlns="http://www.w3.org/2000/svg">
<path d="M27.0219 6.89067L23.4251 16.7728L4.25073 20.0852C3.99536 20.1295 3.75612 20.2406 3.55725 20.4071C3.35834 20.5737 3.20679 20.7901 3.11802 21.034L1.0567 26.6974C0.72217 27.6166 1.35804 28.5991 2.33153 28.6675L18.6777 29.8161L15.4407 38.7098L9.11252 40.6367C8.66989 40.7713 8.31592 41.1076 8.15763 41.5425L6.89911 45.0003C6.5715 45.9004 7.17472 46.868 8.12553 46.9664L18.4437 47.6364L26.7786 53.7555C27.5702 54.2914 28.6543 53.9378 28.9819 53.0377L30.2404 49.58C30.399 49.1442 30.3437 48.6599 30.0912 48.2723L26.4821 42.7285L29.7191 33.8348L42.9785 43.4617C43.7682 44.0351 44.8877 43.6915 45.2223 42.7724L47.2836 37.109C47.4642 36.6126 47.3654 36.0577 47.0254 35.6549L34.4665 20.7915L38.0633 10.9094C39.1758 7.85287 38.6131 1.70922 35.5638 0.59936C32.5145 -0.510496 28.1344 3.83414 27.0219 6.89067Z" fill="#F7C91F"/>
</svg>
