<svg width="52" height="45" viewBox="0 0 52 45" fill="none" xmlns="http://www.w3.org/2000/svg">
<path d="M40.8625 5.58006L31.7551 10.8382L14.9375 1.05061C14.7134 0.920428 14.4587 0.851736 14.1993 0.851465C13.9398 0.851245 13.6847 0.919543 13.4599 1.04936L8.24043 4.06281C7.39337 4.55186 7.24892 5.71326 7.9507 6.39138L19.7343 17.7784L11.5378 22.5107L5.45157 19.9191C5.02597 19.7377 4.53865 19.7678 4.13783 19.9992L0.951161 21.839C0.121618 22.3179 -0.0382887 23.447 0.626869 24.1334L8.10035 31.2792L10.552 41.3242C10.8139 42.2435 11.8716 42.6695 12.7012 42.1906L15.8878 40.3508C16.2895 40.1189 16.5584 39.7124 16.6141 39.2531L17.4128 32.6865L25.6093 27.9542L29.5785 43.8518C29.8149 44.7987 30.8934 45.2551 31.7404 44.766L36.9599 41.7526C37.4173 41.4885 37.6982 40.9998 37.6968 40.4727L37.6301 21.014L46.7375 15.7559C49.5544 14.1295 53.0724 9.06151 51.4499 6.25125C49.8274 3.441 43.6794 3.95371 40.8625 5.58006Z" fill="#F7C91F"/>
</svg>
