<svg width="48" height="55" viewBox="0 0 48 55" fill="none" xmlns="http://www.w3.org/2000/svg">
<path d="M38.0633 44.0933L34.4665 34.2112L47.0257 19.3486C47.1928 19.1505 47.3047 18.9117 47.35 18.6563C47.3953 18.4008 47.3723 18.1377 47.2835 17.8937L45.2222 12.2303C44.8877 11.3112 43.769 10.9672 42.9793 11.5406L29.7191 21.1679L26.482 12.2741L30.0911 6.73038C30.3437 6.34275 30.3987 5.85761 30.2404 5.42269L28.9818 1.96495C28.6542 1.06485 27.5701 0.711318 26.7786 1.24716L18.4437 7.36626L8.12549 8.03633C7.17468 8.13466 6.57145 9.10232 6.89907 10.0024L8.15758 13.4602C8.31619 13.896 8.66984 14.2314 9.11248 14.366L15.4407 16.2929L18.6777 25.1866L2.33239 26.3349C1.35887 26.4033 0.722124 27.3861 1.05665 28.3052L3.11797 33.9687C3.29863 34.465 3.73105 34.8265 4.25039 34.9166L23.4251 38.2299L27.0219 48.112C28.1344 51.1685 32.5145 55.5132 35.5638 54.4033C38.6131 53.2935 39.1757 47.1498 38.0633 44.0933Z" fill="#F7C91F"/>
</svg>
