<svg width="55" height="48" viewBox="0 0 55 48" fill="none" xmlns="http://www.w3.org/2000/svg">
<path d="M44.0921 9.93839L34.21 13.5352L19.3474 0.975933C19.1493 0.808807 18.9104 0.696936 18.655 0.651627C18.3996 0.606354 18.1364 0.629311 17.8925 0.718114L12.2291 2.77944C11.31 3.11397 10.966 4.23264 11.5394 5.02232L21.1666 18.2826L12.2729 21.5196L6.72916 17.9105C6.34153 17.658 5.85639 17.603 5.42147 17.7613L1.96373 19.0198C1.06363 19.3474 0.710098 20.4315 1.24594 21.2231L7.36504 29.558L8.03511 39.8762C8.13344 40.827 9.1011 41.4302 10.0012 41.1026L13.4589 39.8441C13.8947 39.6855 14.2302 39.3318 14.3648 38.8892L16.2917 32.561L25.1854 29.3239L26.3337 45.6693C26.4021 46.6428 27.3849 47.2795 28.304 46.945L33.9675 44.8837C34.4638 44.703 34.8253 44.2706 34.9154 43.7513L38.2287 24.5766L48.1108 20.9798C51.1673 19.8673 55.512 15.4872 54.4021 12.4379C53.2922 9.38858 47.1486 8.8259 44.0921 9.93839Z" fill="#F7C91F"/>
</svg>
