<svg width="45" height="52" viewBox="0 0 45 52" fill="none" xmlns="http://www.w3.org/2000/svg">
<path d="M5.57906 11.1391L10.8372 20.2465L1.04962 37.0642C0.919435 37.2883 0.850743 37.5429 0.850472 37.8023C0.850252 38.0618 0.91855 38.3169 1.04836 38.5418L4.06181 43.7612C4.55086 44.6083 5.71226 44.7527 6.39039 44.0509L17.7774 32.2673L22.5097 40.4638L19.9181 46.5501C19.7367 46.9757 19.7668 47.463 19.9982 47.8638L21.838 51.0505C22.3169 51.88 23.446 52.0399 24.1325 51.3748L31.2782 43.9013L41.3232 41.4497C42.2425 41.1877 42.6685 40.13 42.1896 39.3005L40.3498 36.1138C40.1179 35.7122 39.7114 35.4433 39.2521 35.3876L32.6855 34.5888L27.9532 26.3923L43.8508 22.4231C44.7977 22.1867 45.2541 21.1083 44.765 20.2612L41.7516 15.0417C41.4875 14.5843 40.9988 14.3034 40.4717 14.3048L21.013 14.3715L15.7549 5.26414C14.1285 2.44722 9.06051 -1.07081 6.25026 0.551692C3.44001 2.17419 3.95271 8.32222 5.57906 11.1391Z" fill="#F7C91F"/>
</svg>
