<svg width="47" height="54" viewBox="0 0 47 54" fill="none" xmlns="http://www.w3.org/2000/svg">
<path d="M29.3752 44.1681L29.3752 33.6518L46.2603 23.9811C46.4851 23.8521 46.672 23.6659 46.8019 23.4414C46.9318 23.2168 47.0002 22.9617 47.0002 22.7021L47.0002 16.6752C47.0002 15.6971 46.0667 14.9913 45.1285 15.26L29.3752 19.7714L29.3752 10.3069L34.6627 6.33181C35.0326 6.05393 35.2502 5.61686 35.2502 5.15403L35.2502 1.47438C35.2502 0.516501 34.3524 -0.186488 33.4253 0.0463079L23.5002 2.94568L13.5751 0.046308C12.648 -0.186488 11.7502 0.516501 11.7502 1.47438L11.7502 5.15403C11.7502 5.61778 11.9678 6.05393 12.3377 6.33181L17.6252 10.3069L17.6252 19.7714L1.87292 15.26C0.934723 14.9913 0.00022336 15.6971 0.000223365 16.6752L0.000223396 22.7021C0.000223399 23.2303 0.282922 23.7179 0.740122 23.9802L17.6252 33.6518L17.6252 44.1681C17.6252 47.4208 20.2552 53.0015 23.5002 53.0015C26.7452 53.0015 29.3752 47.4208 29.3752 44.1681Z" fill="#F7C91F"/>
</svg>
