<svg width="55" height="49" viewBox="0 0 55 49" fill="none" xmlns="http://www.w3.org/2000/svg">
<path d="M10.1222 34.3549L20.4787 32.5288L32.9346 47.4781C33.1007 47.6771 33.3165 47.8287 33.5601 47.9177C33.8039 48.0067 34.067 48.0297 34.3226 47.9846L40.258 46.9381C41.2212 46.7682 41.7542 45.7263 41.3267 44.849L34.1483 30.1185L43.469 28.475L48.3018 32.9919C48.6397 33.3079 49.1079 33.4463 49.5637 33.366L53.1875 32.727C54.1308 32.5607 54.6672 31.5544 54.277 30.6818L49.6982 21.411L50.83 11.1332C50.8983 10.1798 50.0501 9.41768 49.1067 9.58401L45.483 10.223C45.0263 10.3035 44.6346 10.5935 44.4251 11.0061L41.4286 16.9035L32.1079 18.547L33.8154 2.25061C33.9171 1.28001 33.0598 0.482266 32.0965 0.652111L26.1612 1.69867C25.641 1.79039 25.2099 2.15347 25.031 2.64927L18.4384 20.9573L8.08184 22.7834C4.87856 23.3483 -0.160665 26.9074 0.402823 30.1031C0.966312 33.2988 6.91892 34.9198 10.1222 34.3549Z" fill="#F7C91F"/>
</svg>
