<svg width="44" height="49" viewBox="0 0 44 49" fill="none" xmlns="http://www.w3.org/2000/svg">
<path d="M41.3566 37.2584L34.5969 29.2025L41.3154 10.9407C41.4047 10.6974 41.4281 10.4347 41.3833 10.1792C41.3385 9.92363 41.2269 9.68423 41.0601 9.48537L37.186 4.8685C36.5573 4.11923 35.3885 4.17865 34.8425 4.98753L25.6747 18.5695L19.591 11.3192L21.0864 4.87542C21.1911 4.42478 21.0769 3.9501 20.7794 3.59555L18.4141 0.776773C17.7984 0.0429991 16.6588 0.0815727 16.0982 0.855833L10.3589 9.45661L0.892109 13.6153C0.0322705 14.0329 -0.203613 15.1485 0.412097 15.8823L2.77733 18.7011C3.07542 19.0563 3.52247 19.2506 3.98445 19.2257L10.59 18.872L16.6737 26.1222L1.70685 32.7917C0.815432 33.1889 0.553244 34.3303 1.18195 35.0795L5.05597 39.6964C5.39549 40.101 5.92548 40.2928 6.44431 40.1999L25.5958 36.7552L32.3556 44.8112C34.4464 47.3029 40.0483 49.8874 42.5341 47.8016C45.0199 45.7157 43.4474 39.7501 41.3566 37.2584Z" fill="#F7C91F"/>
</svg>
