<svg width="53" height="48" viewBox="0 0 53 48" fill="none" xmlns="http://www.w3.org/2000/svg">
<path d="M8.83364 29.3765L19.3499 29.3765L29.0206 46.2616C29.1496 46.4864 29.3358 46.6732 29.5603 46.8031C29.7849 46.9331 30.04 47.0015 30.2996 47.0015L36.3265 47.0015C37.3046 47.0015 38.0104 46.0679 37.7417 45.1297L33.2303 29.3765L42.6948 29.3765L46.6699 34.664C46.9478 35.0339 47.3849 35.2515 47.8477 35.2515L51.5273 35.2515C52.4852 35.2515 53.1882 34.3537 52.9554 33.4266L50.056 23.5015L52.9554 13.5764C53.1882 12.6493 52.4852 11.7515 51.5273 11.7515L47.8477 11.7515C47.3839 11.7515 46.9478 11.9691 46.6699 12.339L42.6948 17.6265L33.2303 17.6265L37.7417 1.87416C38.0104 0.935959 37.3046 0.00145932 36.3265 0.00145933L30.2996 0.00145936C29.7714 0.00145936 29.2838 0.284158 29.0215 0.741358L19.3499 17.6265L8.83364 17.6265C5.58094 17.6265 0.000237685 20.2565 0.000237702 23.5015C0.000237718 26.7465 5.58094 29.3765 8.83364 29.3765Z" fill="#F7C91F"/>
</svg>
