<svg width="48" height="55" viewBox="0 0 48 55" fill="none" xmlns="http://www.w3.org/2000/svg">
<path d="M20.9786 48.112L24.5754 38.2299L43.7498 34.9175C44.0051 34.8732 44.2444 34.7621 44.4433 34.5956C44.6422 34.4289 44.7937 34.2126 44.8825 33.9687L46.9438 28.3052C47.2783 27.3861 46.6425 26.4036 45.669 26.3352L29.3228 25.1866L32.5598 16.2929L38.888 14.366C39.3306 14.2314 39.6846 13.8951 39.8429 13.4602L41.1014 10.0024C41.429 9.10232 40.8258 8.13466 39.875 8.03633L29.5568 7.36626L21.2219 1.24717C20.4303 0.711322 19.3462 1.06485 19.0186 1.96496L17.7601 5.4227C17.6015 5.85848 17.6568 6.34275 17.9093 6.73039L21.5184 12.2742L18.2814 21.1679L5.02203 11.5409C4.23232 10.9676 3.11277 11.3112 2.77824 12.2303L0.716924 17.8937C0.536269 18.3901 0.635149 18.945 0.975065 19.3478L13.534 34.2112L9.9372 44.0933C8.82471 47.1498 9.38739 53.2935 12.4367 54.4033C15.486 55.5132 19.8661 51.1686 20.9786 48.112Z" fill="#F7C91F"/>
</svg>
