<svg width="53" height="48" viewBox="0 0 53 48" fill="none" xmlns="http://www.w3.org/2000/svg">
<path d="M44.1668 17.6263L33.6505 17.6263L23.9798 0.741226C23.8508 0.516422 23.6646 0.3296 23.4401 0.199672C23.2155 0.0697452 22.9604 0.00132641 22.7008 0.00134266L16.6739 0.00134269C15.6958 0.0013427 14.99 0.934917 15.2587 1.87308L19.7701 17.6263L10.3056 17.6263L6.33057 12.3388C6.05269 11.9689 5.61562 11.7513 5.15279 11.7513L1.47314 11.7513C0.515265 11.7513 -0.187724 12.6491 0.0450719 13.5762L2.94444 23.5013L0.045072 33.4264C-0.187724 34.3535 0.515265 35.2513 1.47314 35.2513L5.15279 35.2513C5.61654 35.2513 6.05269 35.0337 6.33057 34.6638L10.3056 29.3763L19.7701 29.3763L15.2587 45.1286C14.99 46.0668 15.6958 47.0013 16.6739 47.0013L22.7008 47.0013C23.229 47.0013 23.7166 46.7186 23.9789 46.2614L33.6505 29.3763L44.1668 29.3763C47.4195 29.3763 53.0002 26.7463 53.0002 23.5013C53.0002 20.2563 47.4195 17.6263 44.1668 17.6263Z" fill="#F7C91F"/>
</svg>
