<svg width="55" height="48" viewBox="0 0 55 48" fill="none" xmlns="http://www.w3.org/2000/svg">
<path d="M48.1108 27.0231L38.2287 23.4263L34.9163 4.25187C34.8719 3.99651 34.7608 3.75727 34.5943 3.55839C34.4277 3.35948 34.2114 3.20794 33.9674 3.11917L28.304 1.05784C27.3849 0.723315 26.4024 1.35919 26.334 2.33268L25.1854 18.6789L16.2917 15.4418L14.3647 9.11367C14.2301 8.67103 13.8939 8.31707 13.4589 8.15877L10.0012 6.90026C9.10109 6.57264 8.13343 7.17586 8.0351 8.12667L7.36503 18.4449L1.24593 26.7798C0.710086 27.5713 1.06361 28.6554 1.96372 28.983L5.42146 30.2416C5.85724 30.4002 6.34151 30.3449 6.72915 30.0923L12.2729 26.4832L21.1666 29.7203L11.5397 42.9796C10.9663 43.7693 11.3099 44.8889 12.2291 45.2234L17.8925 47.2847C18.3888 47.4654 18.9437 47.3665 19.3466 47.0266L34.2099 34.4677L44.092 38.0644C47.1486 39.1769 53.2922 38.6143 54.4021 35.565C55.5119 32.5156 51.1673 28.1355 48.1108 27.0231Z" fill="#F7C91F"/>
</svg>
