<svg width="52" height="45" viewBox="0 0 52 45" fill="none" xmlns="http://www.w3.org/2000/svg">
<path d="M46.7375 29.2468L37.6301 23.9886L37.6976 4.53034C37.6982 4.27115 37.6304 4.01626 37.5009 3.79149C37.3714 3.56667 37.1847 3.37987 36.9599 3.25008L31.7404 0.236631C30.8933 -0.252419 29.8153 0.20318 29.5789 1.15001L25.6093 17.0484L17.4128 12.3162L16.614 5.74954C16.5583 5.29026 16.2886 4.88328 15.8878 4.65186L12.7011 2.81204C11.8716 2.3331 10.8139 2.75912 10.5519 3.67841L8.10031 13.7235L0.626836 20.8692C-0.038321 21.5557 0.121585 22.6847 0.951128 23.1636L4.1378 25.0035C4.53942 25.2353 5.02594 25.265 5.45154 25.0836L11.5378 22.492L19.7343 27.2242L7.95115 38.6104C7.24935 39.2886 7.39334 40.4508 8.2404 40.9398L13.4598 43.9533C13.9173 44.2174 14.4809 44.2164 14.9367 43.9516L31.7551 34.1644L40.8625 39.4226C43.6794 41.0489 49.8274 41.5616 51.4499 38.7514C53.0724 35.9411 49.5544 30.8731 46.7375 29.2468Z" fill="#F7C91F"/>
</svg>
