<svg width="45" height="52" viewBox="0 0 45 52" fill="none" xmlns="http://www.w3.org/2000/svg">
<path d="M39.4214 40.8637L34.1633 31.7563L43.9509 14.9386C44.0811 14.7145 44.1497 14.4599 44.15 14.2005C44.1502 13.941 44.0819 13.6859 43.9521 13.4611L40.9387 8.24161C40.4496 7.39455 39.2882 7.25009 38.6101 7.95188L27.2231 19.7355L22.4908 11.539L25.0824 5.45274C25.2638 5.02714 25.2337 4.53983 25.0023 4.13901L23.1625 0.952336C22.6835 0.122793 21.5545 -0.0371137 20.868 0.628044L13.7223 8.10152L3.67726 10.5531C2.75797 10.8151 2.33194 11.8728 2.81088 12.7023L4.6507 15.889C4.88258 16.2906 5.2891 16.5595 5.74838 16.6152L12.315 17.414L17.0473 25.6105L1.14968 29.5797C0.202825 29.8161 -0.253576 30.8946 0.235474 31.7416L3.24892 36.9611C3.51302 37.4185 4.00165 37.6994 4.52875 37.698L23.9875 37.6313L29.2456 46.7387C30.872 49.5556 35.94 53.0736 38.7502 51.4511C41.5605 49.8286 41.0478 43.6806 39.4214 40.8637Z" fill="#F7C91F"/>
</svg>
