<svg width="55" height="49" viewBox="0 0 55 49" fill="none" xmlns="http://www.w3.org/2000/svg">
<path d="M8.08186 26.2194L18.4384 28.0455L25.0301 46.3534C25.1181 46.5972 25.269 46.8135 25.4676 46.9805C25.6662 47.1474 25.9055 47.2591 26.1612 47.3042L32.0965 48.3507C33.0598 48.5206 33.917 47.7238 33.8153 46.7532L32.1079 30.4558L41.4286 32.0993L44.4251 37.9968C44.6346 38.4093 45.0272 38.6995 45.483 38.7799L49.1068 39.4188C50.0501 39.5852 50.8983 38.8231 50.83 37.8696L49.6982 27.5919L54.277 18.321C54.6672 17.4484 54.1308 16.4422 53.1875 16.2758L49.5637 15.6369C49.107 15.5564 48.6397 15.6949 48.3018 16.0109L43.469 20.5278L34.1483 18.8844L41.3265 4.15476C41.754 3.27748 41.2212 2.23461 40.258 2.06477L34.3227 1.01821C33.8025 0.926485 33.2732 1.12022 32.9355 1.52492L20.4788 16.474L10.1222 14.6479C6.91894 14.0831 0.966327 15.7041 0.402839 18.8998C-0.16065 22.0955 4.87857 25.6546 8.08186 26.2194Z" fill="#F7C91F"/>
</svg>
