<svg width="49" height="44" viewBox="0 0 49 44" fill="none" xmlns="http://www.w3.org/2000/svg">
<path d="M11.7432 41.3578L19.7992 34.5981L38.0609 41.3166C38.3042 41.4059 38.5669 41.4293 38.8224 41.3846C39.078 41.3397 39.3174 41.2282 39.5162 41.0613L44.1331 37.1873C44.8824 36.5585 44.823 35.3897 44.0141 34.8437L30.4322 25.6759L37.6824 19.5923L44.1262 21.0876C44.5768 21.1923 45.0515 21.0781 45.4061 20.7806L48.2248 18.4153C48.9586 17.7996 48.92 16.66 48.1458 16.0995L39.545 10.3601L35.3863 0.893314C34.9687 0.033476 33.8531 -0.202407 33.1193 0.413302L30.3006 2.77854C29.9453 3.07663 29.7511 3.52367 29.776 3.98565L30.1296 10.5912L22.8794 16.6749L16.21 1.70806C15.8127 0.816638 14.6714 0.554449 13.9221 1.18316L9.30522 5.05718C8.9006 5.3967 8.70879 5.92668 8.80174 6.44552L12.2464 25.597L4.19044 32.3568C1.69873 34.4476 -0.885804 40.0495 1.20004 42.5353C3.28589 45.0211 9.25149 43.4486 11.7432 41.3578Z" fill="#F7C91F"/>
</svg>
