<svg width="48" height="55" viewBox="0 0 48 55" fill="none" xmlns="http://www.w3.org/2000/svg">
<path d="M9.93723 10.9095L13.534 20.7916L0.974773 35.6542C0.807647 35.8523 0.695776 36.0911 0.650467 36.3465C0.605194 36.602 0.62815 36.8651 0.716954 37.1091L2.77828 42.7725C3.11281 43.6916 4.23148 44.0356 5.02116 43.4622L18.2814 33.8349L21.5184 42.7287L17.9094 48.2724C17.6568 48.6601 17.6018 49.1452 17.7601 49.5801L19.0186 53.0379C19.3463 53.938 20.4303 54.2915 21.2219 53.7556L29.5568 47.6365L39.875 46.9665C40.8258 46.8681 41.429 45.9005 41.1014 45.0004L39.8429 41.5426C39.6843 41.1069 39.3306 40.7714 38.888 40.6368L32.5598 38.7099L29.3228 29.8162L45.6681 28.6679C46.6416 28.5995 47.2784 27.6167 46.9438 26.6976L44.8825 21.0341C44.7019 20.5378 44.2694 20.1763 43.7501 20.0862L24.5754 16.7729L20.9786 6.89079C19.8661 3.83425 15.486 -0.510378 12.4367 0.599477C9.38743 1.70933 8.82475 7.85299 9.93723 10.9095Z" fill="#F7C91F"/>
</svg>
