<svg width="49" height="55" viewBox="0 0 49 55" fill="none" xmlns="http://www.w3.org/2000/svg">
<path d="M26.2182 46.9198L28.0443 36.5633L46.3522 29.9716C46.596 29.8836 46.8123 29.7326 46.9793 29.5341C47.1462 29.3355 47.2579 29.0961 47.303 28.8405L48.3495 22.9051C48.5194 21.9419 47.7225 21.0847 46.752 21.1864L30.4546 22.8937L32.0981 13.573L37.9956 10.5765C38.4081 10.3671 38.6983 9.97446 38.7787 9.51866L39.4176 5.89491C39.584 4.95159 38.8219 4.10338 37.8684 4.17165L27.5906 5.30349L18.3198 0.724694C17.4472 0.334446 16.441 0.870853 16.2746 1.81418L15.6357 5.43792C15.5551 5.89463 15.6937 6.36194 16.0097 6.69983L20.5266 11.5327L18.8832 20.8534L4.15356 13.6752C3.27627 13.2476 2.23341 13.7804 2.06356 14.7437L1.017 20.679C0.92528 21.1992 1.11901 21.7285 1.52372 22.0662L16.4728 34.5229L14.6467 44.8794C14.0819 48.0827 15.7028 54.0353 18.8985 54.5988C22.0943 55.1623 25.6534 50.1231 26.2182 46.9198Z" fill="#F7C91F"/>
</svg>
