<svg width="44" height="49" viewBox="0 0 44 49" fill="none" xmlns="http://www.w3.org/2000/svg">
<path d="M2.64388 11.7444L9.40363 19.8003L2.68508 38.0621C2.59579 38.3054 2.57236 38.5681 2.61714 38.8236C2.66198 39.0792 2.77354 39.3186 2.94042 39.5174L6.81444 44.1343C7.44315 44.8836 8.61199 44.8242 9.15795 44.0153L18.3258 30.4333L24.4094 37.6836L22.9141 44.1274C22.8094 44.578 22.9236 45.0527 23.2211 45.4073L25.5863 48.226C26.2021 48.9598 27.3417 48.9212 27.9022 48.147L33.6416 39.5462L43.1084 35.3875C43.9682 34.9699 44.2041 33.8543 43.5884 33.1205L41.2232 30.3017C40.9251 29.9465 40.478 29.7523 40.016 29.7772L33.4105 30.1308L27.3268 22.8806L42.2936 16.2111C43.1851 15.8139 43.4472 14.6725 42.8185 13.9233L38.9445 9.30641C38.605 8.90178 38.075 8.70997 37.5562 8.80292L18.4046 12.2476L11.6449 4.19163C9.5541 1.69992 3.9522 -0.884619 1.46639 1.20123C-1.01943 3.28707 0.553081 9.25267 2.64388 11.7444Z" fill="#F7C91F"/>
</svg>
