<svg width="44" height="49" viewBox="0 0 44 49" fill="none" xmlns="http://www.w3.org/2000/svg">
<path d="M11.6449 44.8112L18.4046 36.7553L37.5556 40.2006C37.8107 40.2463 38.0735 40.2237 38.3173 40.1353C38.5612 40.0467 38.7776 39.8953 38.9445 39.6964L42.8185 35.0796C43.4472 34.3303 43.1857 33.1895 42.2943 32.7923L27.3268 26.1223L33.4104 18.872L40.016 19.2257C40.478 19.2506 40.9256 19.0556 41.2231 18.7011L43.5884 15.8823C44.2041 15.1485 43.9682 14.0329 43.1083 13.6153L33.6416 9.45665L27.9022 0.855872C27.3416 0.0816119 26.202 0.043037 25.5863 0.776811L23.2211 3.59559C22.923 3.95084 22.8093 4.42482 22.9141 4.87546L24.4094 11.3193L18.3257 18.5695L9.15865 4.98818C8.61267 4.17928 7.44312 4.11927 6.81441 4.86854L2.94039 9.48541C2.60087 9.89004 2.50401 10.4453 2.68564 10.9401L9.40359 29.2025L2.64384 37.2585C0.553049 39.7502 -1.01946 45.7158 1.46635 47.8016C3.95217 49.8875 9.55407 47.3029 11.6449 44.8112Z" fill="#F7C91F"/>
</svg>
