<svg width="55" height="48" viewBox="0 0 55 48" fill="none" xmlns="http://www.w3.org/2000/svg">
<path d="M6.88971 20.9798L16.7718 24.5765L20.0842 43.7509C20.1286 44.0063 20.2396 44.2455 20.4062 44.4444C20.5728 44.6433 20.7891 44.7949 21.033 44.8836L26.6965 46.945C27.6156 47.2795 28.5981 46.6436 28.6665 45.6701L29.8151 29.3239L38.7088 32.561L40.6357 38.8891C40.7703 39.3318 41.1066 39.6857 41.5416 39.844L44.9993 41.1025C45.8994 41.4302 46.8671 40.8269 46.9654 39.8761L47.6355 29.5579L53.7546 21.223C54.2904 20.4315 53.9369 19.3474 53.0368 19.0198L49.579 17.7613C49.1432 17.6026 48.659 17.6579 48.2713 17.9105L42.7276 21.5196L33.8339 18.2825L43.4608 5.02319C44.0342 4.23347 43.6905 3.11393 42.7714 2.7794L37.108 0.71808C36.6117 0.537425 36.0568 0.636306 35.6539 0.976222L20.7905 13.5351L10.9084 9.93836C7.85191 8.82587 1.70825 9.38855 0.598395 12.4379C-0.51146 15.4872 3.83317 19.8673 6.88971 20.9798Z" fill="#F7C91F"/>
</svg>
