<svg width="49" height="55" viewBox="0 0 49 55" fill="none" xmlns="http://www.w3.org/2000/svg">
<path d="M34.3537 44.8795L32.5276 34.523L47.4769 22.0671C47.6759 21.9011 47.8275 21.6853 47.9165 21.4416C48.0055 21.1979 48.0285 20.9347 47.9835 20.6791L46.9369 14.7438C46.767 13.7805 45.7251 13.2476 44.8478 13.6751L30.1173 20.8535L28.4738 11.5328L32.9907 6.69992C33.3067 6.36203 33.4451 5.89381 33.3648 5.43801L32.7258 1.81426C32.5595 0.870942 31.5532 0.334534 30.6807 0.724783L21.4098 5.30358L11.132 4.17173C10.1786 4.10346 9.41649 4.95168 9.58282 5.895L10.2218 9.51875C10.3023 9.97545 10.5924 10.3672 11.0049 10.5766L16.9023 13.5731L18.5458 22.8938L2.24942 21.1863C1.27882 21.0846 0.481076 21.942 0.650921 22.9052L1.69748 28.8406C1.7892 29.3607 2.15228 29.7918 2.64808 29.9708L20.9561 36.5634L22.7823 46.9199C23.3471 50.1232 26.9062 55.1624 30.1019 54.5989C33.2976 54.0354 34.9186 48.0828 34.3537 44.8795Z" fill="#F7C91F"/>
</svg>
