<svg width="44" height="49" viewBox="0 0 44 49" fill="none" xmlns="http://www.w3.org/2000/svg">
<path d="M32.3556 4.19148L25.5959 12.2474L6.44492 8.80207C6.18979 8.75639 5.92698 8.77894 5.68315 8.8674C5.43925 8.95594 5.22286 9.10738 5.05601 9.30625L1.18199 13.9231C0.553279 14.6724 0.814758 15.8132 1.70615 16.2104L16.6737 22.8804L10.5901 30.1307L3.98448 29.777C3.5225 29.7521 3.07487 29.947 2.77737 30.3016L0.412132 33.1204C-0.203578 33.8541 0.0323037 34.9698 0.892142 35.3873L10.3589 39.546L16.0983 48.1468C16.6588 48.9211 17.7985 48.9596 18.4142 48.2259L20.7794 45.4071C21.0775 45.0518 21.1912 44.5779 21.0864 44.1272L19.5911 37.6834L25.6747 30.4332L34.8418 44.0145C35.3878 44.8234 36.5574 44.8834 37.1861 44.1341L41.0601 39.5173C41.3996 39.1127 41.4965 38.5574 41.3148 38.0626L34.5969 19.8002L41.3566 11.7442C43.4474 9.25252 45.0199 3.28692 42.5341 1.20108C40.0483 -0.884771 34.4464 1.69976 32.3556 4.19148Z" fill="#F7C91F"/>
</svg>
