<svg width="55" height="48" viewBox="0 0 55 48" fill="none" xmlns="http://www.w3.org/2000/svg">
<path d="M10.9084 38.0644L20.7905 34.4676L35.653 47.0269C35.8512 47.194 36.09 47.3059 36.3454 47.3512C36.6009 47.3965 36.864 47.3735 37.108 47.2847L42.7714 45.2234C43.6905 44.8888 44.0345 43.7702 43.4611 42.9805L33.8338 29.7203L42.7275 26.4832L48.2713 30.0923C48.6589 30.3448 49.1441 30.3998 49.579 30.2415L53.0367 28.983C53.9368 28.6554 54.2904 27.5713 53.7545 26.7797L47.6354 18.4448L46.9654 8.12664C46.867 7.17583 45.8994 6.57261 44.9993 6.90023L41.5415 8.15874C41.1057 8.31735 40.7703 8.671 40.6357 9.11364L38.7088 15.4418L29.8151 18.6789L28.6668 2.33355C28.5984 1.36003 27.6156 0.723283 26.6965 1.05781L21.033 3.11913C20.5367 3.29979 20.1752 3.73221 20.0851 4.25155L16.7718 23.4262L6.88968 27.023C3.83315 28.1355 -0.511485 32.5156 0.598371 35.5649C1.70823 38.6142 7.85188 39.1769 10.9084 38.0644Z" fill="#F7C91F"/>
</svg>
