<svg width="47" height="54" viewBox="0 0 47 54" fill="none" xmlns="http://www.w3.org/2000/svg">
<path d="M17.6253 8.83462L17.6253 19.3509L0.740158 29.0216C0.515354 29.1506 0.328532 29.3368 0.198604 29.5613C0.0686775 29.7859 0.000258767 30.041 0.000275007 30.3006L0.000274915 36.3275C0.0002749 37.3056 0.933849 38.0114 1.87202 37.7427L17.6253 33.2313L17.6253 42.6958L12.3378 46.6709C11.9679 46.9488 11.7503 47.3858 11.7503 47.8487L11.7503 51.5283C11.7503 52.4862 12.6481 53.1892 13.5752 52.9564L23.5003 50.057L33.4254 52.9564C34.3525 53.1892 35.2503 52.4862 35.2503 51.5283L35.2503 47.8487C35.2503 47.3849 35.0327 46.9488 34.6628 46.6709L29.3753 42.6958L29.3753 33.2313L45.1276 37.7427C46.0658 38.0114 47.0003 37.3056 47.0003 36.3275L47.0003 30.3006C47.0003 29.7724 46.7176 29.2848 46.2604 29.0225L29.3753 19.3509L29.3753 8.83462C29.3753 5.58192 26.7453 0.00121479 23.5003 0.00121474C20.2553 0.00121469 17.6253 5.58192 17.6253 8.83462Z" fill="#F7C91F"/>
</svg>
